<svg width="186" height="22" viewBox="0 0 186 22" fill="none" xmlns="http://www.w3.org/2000/svg">
<path fill-rule="evenodd" clip-rule="evenodd" d="M6.91153 11.1759L19.6432 3.92365C18.296 2.87598 16.5955 2.25084 14.7469 2.25084C10.3751 2.25084 6.83094 5.74753 6.83094 10.0609C6.83094 10.4393 6.85822 10.8114 6.91093 11.1754L0 15.1121L2.90196 20.0711L9.7885 16.1484C8.26282 14.9371 7.20194 13.1792 6.91153 11.1759ZM22.5716 8.86684C22.2609 6.86857 21.1828 5.11979 19.6433 3.92273L26.5298 0L29.4318 4.95907L22.5716 8.86684ZM14.7469 17.8709C12.8698 17.8709 11.1453 17.2264 9.78843 16.1493L22.5712 8.86792C22.6315 9.25688 22.663 9.65528 22.663 10.0609C22.663 14.3742 19.1188 17.8709 14.7469 17.8709Z" fill="#FDD400"/>
<path d="M44.2016 2.45399H51.5523V3.8138H44.2016C43.8224 3.8138 43.5671 3.88574 43.4359 4.02964C43.3046 4.17353 43.239 4.43974 43.239 4.82826V8.17381C43.239 8.64867 43.3192 8.95803 43.4796 9.10193C43.6548 9.24582 43.8953 9.31777 44.2016 9.31777H48.7302C49.9844 9.31777 50.8376 9.6847 51.2898 10.4186C51.4794 10.7351 51.5887 11.0733 51.6179 11.433C51.6471 11.7928 51.6617 12.1381 51.6617 12.4691V14.9944C51.6617 15.757 51.3991 16.3759 50.8741 16.8507C50.3491 17.3255 49.6709 17.563 48.8396 17.563H41.9701V16.2032H48.8396C49.2917 16.2032 49.6417 16.0953 49.8896 15.8794C50.1522 15.6635 50.2834 15.3685 50.2834 14.9944V12.4691C50.2834 12.1381 50.2761 11.8647 50.2615 11.6489C50.247 11.4186 50.1886 11.2316 50.0865 11.0877C49.9844 10.9438 49.824 10.8431 49.6052 10.7855C49.4011 10.7136 49.1094 10.6776 48.7302 10.6776H44.2016C43.4578 10.6776 42.8817 10.4617 42.4733 10.03C42.0649 9.59837 41.8608 8.97962 41.8608 8.17381V4.82826C41.8608 4.31024 41.941 3.90014 42.1014 3.59795C42.2618 3.28139 42.4587 3.03676 42.6921 2.86409C42.94 2.69141 43.1952 2.5835 43.4578 2.54033C43.7349 2.48277 43.9828 2.45399 44.2016 2.45399ZM54.764 6.77083V7.69896C55.1432 7.46872 55.5443 7.26008 55.9674 7.07302C56.4049 6.87155 56.7914 6.77083 57.1267 6.77083H60.649C60.8678 6.77083 61.1084 6.79961 61.3709 6.85717C61.6334 6.90033 61.8814 7.00826 62.1147 7.18093C62.3627 7.33922 62.5669 7.57665 62.7273 7.89322C62.8877 8.19539 62.9679 8.5983 62.9679 9.10193V14.9513C62.9679 15.4692 62.8877 15.8866 62.7273 16.2032C62.5669 16.5053 62.3627 16.7428 62.1147 16.9154C61.8814 17.0737 61.6334 17.1816 61.3709 17.2391C61.1084 17.2824 60.8678 17.304 60.649 17.304H57.1267C56.7914 17.304 56.4049 17.2104 55.9674 17.0234C55.5443 16.8219 55.1432 16.606 54.764 16.3759V21.8798H53.4077V6.77083H54.764ZM57.1267 8.10905C56.9371 8.10905 56.6091 8.23136 56.1424 8.47599C55.6757 8.70621 55.2161 8.97243 54.764 9.2746V14.8002C54.9828 14.9441 55.209 15.0879 55.4422 15.2319C55.6901 15.3757 55.9235 15.5052 56.1424 15.6204C56.361 15.7211 56.5579 15.8075 56.7329 15.8794C56.9081 15.9369 57.0392 15.9657 57.1267 15.9657H60.649C61.0282 15.9657 61.2834 15.8938 61.4147 15.7498C61.5459 15.606 61.6116 15.3398 61.6116 14.9513V9.10193C61.6116 8.7278 61.5459 8.46879 61.4147 8.32489C61.2834 8.18101 61.0282 8.10905 60.649 8.10905H57.1267ZM67.323 11.0661H73.1204V11.0445C73.1204 10.3106 73.0474 9.74945 72.9016 9.36094C72.7703 8.97243 72.6026 8.68464 72.3984 8.49757C72.2088 8.31051 72.0119 8.20258 71.8077 8.17381C71.6036 8.14503 71.4431 8.13064 71.3265 8.13064H65.2447V6.77083H71.3265C71.6181 6.77083 71.9463 6.8212 72.3109 6.92192C72.6901 7.00826 73.0401 7.20252 73.361 7.50469C73.6964 7.80688 73.9736 8.23857 74.1923 8.79975C74.4111 9.36094 74.5205 10.1092 74.5205 11.0445L74.4986 17.563L73.1204 17.5413V16.6132C72.7266 16.8435 72.3036 17.0593 71.8515 17.2607C71.414 17.4622 71.0275 17.563 70.692 17.563H67.0824C66.8636 17.563 66.6156 17.5413 66.3385 17.4982C66.076 17.4406 65.8208 17.3255 65.5729 17.1528C65.3395 16.9801 65.1353 16.7356 64.9603 16.419C64.7999 16.1025 64.7197 15.6851 64.7197 15.1671V13.354C64.7197 13.1813 64.7414 12.9655 64.7853 12.7065C64.8435 12.4475 64.9603 12.1957 65.1353 11.951C65.3249 11.7064 65.5874 11.4978 65.9229 11.3251C66.2729 11.1524 66.7396 11.0661 67.323 11.0661ZM66.0979 13.354V15.1671C66.0979 15.57 66.1635 15.8433 66.2948 15.9873C66.4406 16.1312 66.7032 16.2032 67.0824 16.2032H70.692C70.8962 16.2032 71.2317 16.0808 71.6984 15.8361C72.1797 15.5772 72.6537 15.2966 73.1204 14.9944V12.4259H67.323C67.0459 12.4259 66.8271 12.4547 66.6667 12.5122C66.5063 12.5554 66.3823 12.6202 66.2948 12.7065C66.2073 12.7928 66.1488 12.8935 66.1198 13.0087C66.1052 13.1094 66.0979 13.2246 66.0979 13.354ZM76.2452 14.8217V9.44728C76.2452 8.92925 76.3546 8.49757 76.5733 8.15223C76.7921 7.80688 77.0619 7.53347 77.3828 7.33202C77.7182 7.13058 78.0683 6.98668 78.4329 6.90033C78.8121 6.81401 79.1475 6.77083 79.4392 6.77083H85.521V8.13064H79.4392C79.3225 8.13064 79.1621 8.14503 78.9579 8.17381C78.7537 8.1882 78.5495 8.23856 78.3454 8.32489C78.1558 8.41123 77.988 8.54074 77.8422 8.71342C77.6963 8.88609 77.6234 9.13071 77.6234 9.44728V11.951V14.8217C77.6234 15.1095 77.6963 15.347 77.8422 15.5341C77.988 15.7067 78.1558 15.8433 78.3454 15.9441C78.5495 16.0448 78.7537 16.1167 78.9579 16.16C79.1621 16.1888 79.3225 16.2032 79.4392 16.2032H85.521V17.563H79.4392C79.1475 17.563 78.8121 17.5125 78.4329 17.4119C78.0683 17.3112 77.7182 17.1528 77.3828 16.937C77.0619 16.7068 76.7921 16.419 76.5733 16.0736C76.3546 15.7283 76.2452 15.311 76.2452 14.8217ZM87.2794 13.2893C87.2794 12.7569 87.2794 12.2316 87.2794 11.7136C87.294 11.1812 87.3013 10.6488 87.3013 10.1164C87.3013 7.88601 88.5701 6.77083 91.1078 6.77083H94.6956C94.9144 6.77083 95.1623 6.79961 95.4394 6.85717C95.7166 6.90033 95.9718 7.00826 96.2051 7.18093C96.4531 7.35361 96.6573 7.59822 96.8177 7.91479C96.9927 8.23136 97.0802 8.64867 97.0802 9.16668V10.9798C97.0802 11.1524 97.051 11.3683 96.9927 11.6273C96.9489 11.8863 96.8323 12.1381 96.6427 12.3827C96.4677 12.6273 96.2051 12.836 95.8551 13.0087C95.5197 13.1813 95.0602 13.2677 94.4769 13.2677L88.6576 13.2893C88.6576 14.0231 88.7233 14.5843 88.8545 14.9729C89.0004 15.3614 89.1681 15.6491 89.3577 15.8361C89.5619 16.0232 89.7661 16.1312 89.9702 16.16C90.1744 16.1888 90.3421 16.2032 90.4734 16.2032H97.0583V17.563H90.4734C90.1817 17.563 89.8463 17.5125 89.4671 17.4119C89.1025 17.3112 88.7524 17.1097 88.417 16.8075C88.0961 16.5053 87.8263 16.0736 87.6074 15.5124C87.3888 14.9513 87.2794 14.2102 87.2794 13.2893ZM94.4769 11.9079C94.754 11.9079 94.9727 11.8863 95.1332 11.8431C95.2936 11.7856 95.4103 11.7136 95.4832 11.6273C95.5707 11.5409 95.6218 11.4474 95.6363 11.3467C95.6655 11.2316 95.6801 11.1093 95.6801 10.9798V9.16668C95.6801 8.76377 95.6072 8.49038 95.4613 8.34648C95.3301 8.20258 95.0748 8.13064 94.6956 8.13064H91.1078C90.787 8.13064 90.4807 8.15223 90.189 8.19539C89.8973 8.22417 89.6348 8.30332 89.4014 8.43282C89.1827 8.56233 89.0077 8.76377 88.8764 9.03718C88.7451 9.29619 88.6795 9.65592 88.6795 10.1164V11.9079H94.4769ZM98.8263 5.64846C98.8263 5.13043 98.9211 4.67716 99.1107 4.28865C99.3003 3.88574 99.5482 3.55479 99.8545 3.29578C100.161 3.02238 100.503 2.81373 100.883 2.66984C101.262 2.52594 101.634 2.45399 101.998 2.45399H108.015V3.8138H101.998C101.809 3.8138 101.605 3.85696 101.386 3.9433C101.182 4.01525 100.992 4.13037 100.817 4.28865C100.642 4.43254 100.496 4.6196 100.38 4.84984C100.263 5.08007 100.204 5.34627 100.204 5.64846V8.88609V11.1308V14.4548C100.204 14.8289 100.256 15.1311 100.358 15.3614C100.474 15.5916 100.62 15.7714 100.795 15.901C100.97 16.0161 101.16 16.0953 101.364 16.1384C101.583 16.1816 101.794 16.2032 101.998 16.2032H108.015V17.563H101.998C101.634 17.563 101.262 17.5125 100.883 17.4119C100.503 17.2968 100.161 17.1169 99.8545 16.8722C99.5482 16.6276 99.3003 16.311 99.1107 15.9226C98.9211 15.5197 98.8263 15.0304 98.8263 14.4548C98.8263 14.0375 98.8263 13.6274 98.8263 13.2246C98.8263 12.8216 98.8263 12.4691 98.8263 12.1669C98.8263 11.8503 98.8263 11.5985 98.8263 11.4114C98.8409 11.21 98.8482 11.1093 98.8482 11.1093V8.88609C98.8482 8.88609 98.8409 8.79975 98.8263 8.62708C98.8263 8.44001 98.8263 8.19539 98.8263 7.89322C98.8263 7.59103 98.8263 7.24568 98.8263 6.85717C98.8263 6.46866 98.8263 6.06575 98.8263 5.64846ZM109.775 15.1671V9.16668C109.775 8.64867 109.855 8.23136 110.016 7.91479C110.191 7.59822 110.395 7.35361 110.628 7.18093C110.876 7.00826 111.131 6.90033 111.394 6.85717C111.671 6.79961 111.919 6.77083 112.138 6.77083H117.191C117.41 6.77083 117.658 6.79961 117.935 6.85717C118.212 6.90033 118.467 7.00826 118.701 7.18093C118.949 7.35361 119.153 7.59822 119.313 7.91479C119.488 8.23136 119.576 8.64867 119.576 9.16668V15.1671C119.576 15.6851 119.488 16.1025 119.313 16.419C119.153 16.7356 118.949 16.9801 118.701 17.1528C118.467 17.3255 118.212 17.4406 117.935 17.4982C117.658 17.5413 117.41 17.563 117.191 17.563H112.138C111.919 17.563 111.671 17.5413 111.394 17.4982C111.131 17.4406 110.876 17.3255 110.628 17.1528C110.395 16.9801 110.191 16.7356 110.016 16.419C109.855 16.1025 109.775 15.6851 109.775 15.1671ZM111.153 9.16668V15.1671C111.153 15.57 111.219 15.8433 111.35 15.9873C111.496 16.1312 111.759 16.2032 112.138 16.2032H117.191C117.57 16.2032 117.826 16.1312 117.957 15.9873C118.103 15.8433 118.176 15.57 118.176 15.1671V9.16668C118.176 8.76377 118.103 8.49038 117.957 8.34648C117.826 8.20258 117.57 8.13064 117.191 8.13064H112.138C111.759 8.13064 111.496 8.20258 111.35 8.34648C111.219 8.49038 111.153 8.76377 111.153 9.16668ZM121.322 6.77083H122.7V7.72054C123.094 7.49031 123.51 7.27446 123.947 7.07302C124.399 6.87155 124.793 6.77083 125.129 6.77083H126.2C126.521 6.77083 126.879 6.83558 127.272 6.96509C127.681 7.09459 128.009 7.368 128.257 7.78529C128.651 7.54068 129.081 7.31044 129.548 7.09459C130.014 6.87876 130.423 6.77083 130.773 6.77083H131.845C132.064 6.77083 132.312 6.79961 132.588 6.85717C132.866 6.91473 133.121 7.02984 133.355 7.20252C133.602 7.3608 133.806 7.59822 133.966 7.91479C134.127 8.23136 134.208 8.64867 134.208 9.16668V17.563H132.829V9.16668C132.829 8.77817 132.756 8.51196 132.61 8.36807C132.48 8.22417 132.224 8.15223 131.845 8.15223H130.773C130.584 8.15223 130.277 8.25295 129.854 8.4544C129.431 8.65586 129.008 8.90047 128.585 9.18827V17.563H127.185V9.16668C127.185 8.77817 127.112 8.51196 126.966 8.36807C126.835 8.22417 126.58 8.15223 126.2 8.15223H125.129C124.924 8.15223 124.582 8.27454 124.1 8.51915C123.634 8.76377 123.167 9.03718 122.7 9.33935V17.563H121.322V6.77083H122.7V7.72054C123.094 7.49031 123.51 7.27446 123.947 7.07302C124.399 6.87155 124.793 6.77083 125.129 6.77083H126.2C126.521 6.77083 126.879 6.83558 127.272 6.96509C127.681 7.09459 128.009 7.368 128.257 7.78529C128.651 7.54068 129.081 7.31044 129.548 7.09459C130.014 6.87876 130.423 6.77083 130.773 6.77083H131.845C132.064 6.77083 132.312 6.79961 132.588 6.85717C132.866 6.91473 133.121 7.02984 133.355 7.20252C133.602 7.3608 133.806 7.59822 133.966 7.91479C134.127 8.23136 134.208 8.64867 134.208 9.16668V17.563H132.829V9.16668C132.829 8.77817 132.756 8.51196 132.61 8.36807C132.48 8.22417 132.224 8.15223 131.845 8.15223H130.773C130.584 8.15223 130.277 8.25295 129.854 8.4544C129.431 8.65586 129.008 8.90047 128.585 9.18827V17.563H127.185V9.16668C127.185 8.77817 127.112 8.51196 126.966 8.36807C126.835 8.22417 126.58 8.15223 126.2 8.15223H125.129C124.924 8.15223 124.582 8.27454 124.1 8.51915C123.634 8.76377 123.167 9.03718 122.7 9.33935V17.563H121.322V6.77083ZM137.323 6.77083V7.69896C137.702 7.46872 138.104 7.26008 138.526 7.07302C138.963 6.87155 139.35 6.77083 139.686 6.77083H143.208C143.427 6.77083 143.667 6.79961 143.93 6.85717C144.192 6.90033 144.44 7.00826 144.673 7.18093C144.921 7.33922 145.126 7.57665 145.286 7.89322C145.447 8.19539 145.528 8.5983 145.528 9.10193V14.9513C145.528 15.4692 145.447 15.8866 145.286 16.2032C145.126 16.5053 144.921 16.7428 144.673 16.9154C144.44 17.0737 144.192 17.1816 143.93 17.2391C143.667 17.2824 143.427 17.304 143.208 17.304H139.686C139.35 17.304 138.963 17.2104 138.526 17.0234C138.104 16.8219 137.702 16.606 137.323 16.3759V21.8798H135.967V6.77083H137.323ZM139.686 8.10905C139.497 8.10905 139.168 8.23136 138.701 8.47599C138.234 8.70621 137.775 8.97243 137.323 9.2746V14.8002C137.542 14.9441 137.767 15.0879 138.001 15.2319C138.249 15.3757 138.482 15.5052 138.701 15.6204C138.92 15.7211 139.117 15.8075 139.292 15.8794C139.467 15.9369 139.598 15.9657 139.686 15.9657H143.208C143.587 15.9657 143.843 15.8938 143.973 15.7498C144.105 15.606 144.17 15.3398 144.17 14.9513V9.10193C144.17 8.7278 144.105 8.46879 143.973 8.32489C143.843 8.18101 143.587 8.10905 143.208 8.10905H139.686ZM147.279 6.77083H148.657V15.1671C148.657 15.5555 148.722 15.8219 148.854 15.9657C149 16.1097 149.262 16.1816 149.642 16.1816H153.251C153.338 16.1816 153.47 16.1528 153.645 16.0953C153.834 16.0232 154.039 15.9297 154.258 15.8147C154.476 15.6995 154.709 15.57 154.957 15.4261C155.206 15.2822 155.446 15.1383 155.679 14.9944V6.77083H157.057V17.563H155.679V16.6132C155.285 16.8435 154.863 17.0593 154.41 17.2607C153.974 17.4478 153.586 17.5413 153.251 17.5413H149.642C149.423 17.5413 149.175 17.5197 148.897 17.4766C148.635 17.419 148.379 17.304 148.132 17.1313C147.898 16.9585 147.695 16.7212 147.519 16.419C147.358 16.1025 147.279 15.6851 147.279 15.1671V6.77083H147.279 148.657V15.1671C148.657 15.5555 148.722 15.8219 148.854 15.9657C149 16.1097 149.262 16.1816 149.642 16.1816H153.251C153.338 16.1816 153.47 16.1528 153.645 16.0953C153.834 16.0232 154.039 15.9297 154.258 15.8147C154.476 15.6995 154.709 15.57 154.957 15.4261C155.206 15.2822 155.446 15.1383 155.679 14.9944V6.77083H157.057V17.563H155.679V16.6132C155.285 16.8435 154.863 17.0593 154.41 17.2607C153.974 17.4478 153.586 17.5413 153.251 17.5413H149.642C149.423 17.5413 149.175 17.5197 148.897 17.4766C148.635 17.419 148.379 17.304 148.132 17.1313C147.898 16.9585 147.695 16.7212 147.519 16.419C147.358 16.1025 147.279 15.6851 147.279 15.1671V6.77083ZM161.998 6.77083C161.678 6.49744 161.436 6.20245 161.276 5.88588C161.116 5.56931 160.999 5.26714 160.926 4.97935C160.853 4.64838 160.817 4.31743 160.817 3.98647H162.173C162.173 4.25987 162.202 4.53328 162.26 4.80667C162.319 5.02251 162.406 5.25274 162.524 5.49737C162.64 5.74199 162.822 5.95783 163.07 6.14489C163.231 6.2744 163.42 6.38232 163.639 6.46866C163.872 6.5406 164.106 6.59816 164.339 6.64133C164.572 6.68449 164.798 6.72048 165.017 6.74926C165.236 6.76364 165.433 6.77083 165.608 6.77083H166.089V8.13064H162.195C162.195 8.43282 162.187 8.81414 162.173 9.2746C162.173 9.72067 162.173 10.1955 162.173 10.6992C162.173 11.1884 162.173 11.6704 162.173 12.1453C162.173 12.6202 162.173 13.0159 162.173 13.3324C162.173 14.052 162.238 14.6059 162.37 14.9944C162.516 15.3829 162.684 15.6707 162.873 15.8578C163.078 16.0304 163.281 16.1312 163.486 16.16C163.69 16.1888 163.85 16.2032 163.967 16.2032H166.089V17.563H163.967C163.675 17.563 163.347 17.5197 162.983 17.4334C162.618 17.3327 162.275 17.1313 161.954 16.8291C161.633 16.5269 161.363 16.1025 161.146 15.5555C160.926 14.9944 160.817 14.2533 160.817 13.3324V8.13064H158.804V6.77083H161.998ZM167.83 13.2893C167.83 12.7569 167.83 12.2316 167.83 11.7136C167.844 11.1812 167.852 10.6488 167.852 10.1164C167.852 7.88601 169.121 6.77083 171.658 6.77083H175.247C175.465 6.77083 175.712 6.79961 175.99 6.85717C176.267 6.90033 176.522 7.00826 176.756 7.18093C177.003 7.35361 177.208 7.59822 177.369 7.91479C177.543 8.23136 177.631 8.64867 177.631 9.16668V10.9798C177.631 11.1524 177.602 11.3683 177.543 11.6273C177.5 11.8863 177.383 12.1381 177.194 12.3827C177.018 12.6273 176.756 12.836 176.406 13.0087C176.07 13.1813 175.611 13.2677 175.028 13.2677L169.208 13.2893C169.208 14.0231 169.273 14.5843 169.405 14.9729C169.551 15.3614 169.719 15.6491 169.908 15.8361C170.113 16.0232 170.317 16.1312 170.521 16.16C170.725 16.1888 170.893 16.2032 171.025 16.2032H177.609V17.563H171.025C170.733 17.563 170.397 17.5125 170.018 17.4119C169.653 17.3112 169.303 17.1097 168.968 16.8075C168.647 16.5053 168.378 16.0736 168.158 15.5124C167.939 14.9513 167.83 14.2102 167.83 13.2893ZM175.028 11.9079C175.304 11.9079 175.523 11.8863 175.684 11.8431C175.844 11.7856 175.962 11.7136 176.035 11.6273C176.122 11.5409 176.173 11.4474 176.187 11.3467C176.216 11.2316 176.23 11.1093 176.23 10.9798V9.16668C176.23 8.76377 176.158 8.49038 176.012 8.34648C175.881 8.20258 175.625 8.13064 175.247 8.13064H171.658C171.338 8.13064 171.031 8.15223 170.74 8.19539C170.448 8.22417 170.186 8.30332 169.953 8.43282C169.734 8.56233 169.559 8.76377 169.427 9.03718C169.296 9.29619 169.23 9.65592 169.23 10.1164V11.9079H175.028ZM179.377 17.563V6.77083H180.755V7.54787C181.12 7.34641 181.492 7.16655 181.871 7.00826C182.265 6.84998 182.608 6.77083 182.899 6.77083H184.737V8.13064H182.899C182.724 8.13064 182.425 8.23136 182.002 8.43282C181.594 8.63427 181.179 8.8717 180.755 9.14509V17.563H179.377Z" fill="white"/>
</svg>
